<svg xmlns="http://www.w3.org/2000/svg" viewBox="0 0 32 32" fill="none">
  <path
    d="M5 26 L5 9 C5 7 6.5 6 8.5 6 L10.5 6 C11.8 6 12.8 6.6 13.4 7.8 L16 14 L18.6 7.8 C19.2 6.6 20.2 6 21.5 6 L23.5 6 C25.5 6 27 7 27 9 L27 26 C27 28 25.5 29.5 23.5 29.5 L21.5 29.5 C19.5 29.5 18 28 18 26 L18 15.2 L16 18.8 L14 15.2 L14 26 C14 28 12.5 29.5 10.5 29.5 L8.5 29.5 C6.5 29.5 5 28 5 26 Z"
    fill="#FFD93B"
    stroke="#FFFFFF"
    stroke-width="2"
    stroke-linejoin="round"
  />
  <path
    d="M5 26 L5 9 C5 7 6.5 6 8.5 6 L10.5 6 C11.8 6 12.8 6.6 13.4 7.8 L16 14 L18.6 7.8 C19.2 6.6 20.2 6 21.5 6 L23.5 6 C25.5 6 27 7 27 9 L27 26 C27 28 25.5 29.5 23.5 29.5 L21.5 29.5 C19.5 29.5 18 28 18 26 L18 15.2 L16 18.8 L14 15.2 L14 26 C14 28 12.5 29.5 10.5 29.5 L8.5 29.5 C6.5 29.5 5 28 5 26 Z"
    fill="none"
    stroke="#F4A300"
    stroke-width="1.2"
    stroke-linejoin="round"
  />
  <ellipse cx="11.8" cy="9" rx="3.6" ry="2.2" fill="#FFFFFF" opacity="0.28"/>

  <path d="M11.2 14 C12.1 13.1 13.2 13.1 14.1 14" stroke="#3C3C4A" stroke-width="1.2" stroke-linecap="round"/>
  <path d="M17.9 14 C18.8 13.1 19.9 13.1 20.8 14" stroke="#3C3C4A" stroke-width="1.2" stroke-linecap="round"/>
  <circle cx="10.4" cy="16" r="1" fill="#FFB84C"/>
  <circle cx="21.6" cy="16" r="1" fill="#FFB84C"/>
  <path
    d="M13.2 16.4 C13.6 17.8 18.4 17.8 18.8 16.4 C18.9 16 18.5 15.7 18 15.7 L14 15.7 C13.5 15.7 13.1 16 13.2 16.4 Z"
    fill="#3C3C4A"
  />
  <path d="M14.7 17.6 C15 18.4 17 18.4 17.3 17.6 C17.1 17.3 14.9 17.3 14.7 17.6 Z" fill="#F64E4E"/>
</svg>
