<svg xmlns="http://www.w3.org/2000/svg" viewBox="0 0 32 32" fill="none">
  <defs>
    <linearGradient id="bg" x1="0%" y1="0%" x2="100%" y2="100%">
      <stop offset="0%" style="stop-color:#FEF3C7"/>
      <stop offset="100%" style="stop-color:#FDE68A"/>
    </linearGradient>
  </defs>

  <!-- Background -->
  <rect width="32" height="32" rx="8" fill="url(#bg)"/>
  <rect width="32" height="32" rx="8" fill="none" stroke="#F59E0B" stroke-width="1.5"/>

  <!-- Sun rays -->
  <g stroke="#FCD34D" stroke-width="1.5" opacity="0.5">
    <line x1="16" y1="2" x2="16" y2="5"/>
    <line x1="16" y1="27" x2="16" y2="30"/>
    <line x1="2" y1="16" x2="5" y2="16"/>
    <line x1="27" y1="16" x2="30" y2="16"/>
  </g>

  <!-- Simplified brain -->
  <path d="M10 12 Q7 14 7 16 Q7 20 11 22" stroke="#EA580C" stroke-width="2" fill="none" stroke-linecap="round"/>
  <path d="M22 12 Q25 14 25 16 Q25 20 21 22" stroke="#EA580C" stroke-width="2" fill="none" stroke-linecap="round"/>
  <path d="M11 11 Q16 8 21 11" stroke="#EA580C" stroke-width="2" fill="none" stroke-linecap="round"/>

  <!-- Center dot -->
  <circle cx="16" cy="15" r="2" fill="#F97316"/>

  <!-- Success checkmark badge -->
  <circle cx="25" cy="8" r="4" fill="#22C55E"/>
  <path d="M23 8 L24.5 9.5 L27.5 6.5" stroke="white" stroke-width="1.5" stroke-linecap="round" stroke-linejoin="round" fill="none"/>
</svg>
