<svg xmlns="http://www.w3.org/2000/svg" viewBox="0 0 120 120" fill="none">
  <path
    d="M12 104 L12 20 C12 14 16 10 22 10 L34 10 C41 10 45 13 48 18 L60 58 L72 18 C75 13 79 10 86 10 L98 10 C104 10 108 14 108 20 L108 104 C108 110 104 114 98 114 L86 114 C80 114 76 110 76 104 L76 64 L60 86 L44 64 L44 104 C44 110 40 114 34 114 L22 114 C16 114 12 110 12 104 Z"
    fill="#FFD93B"
    stroke="#FFFFFF"
    stroke-width="8"
    stroke-linejoin="round"
  />
  <path
    d="M12 104 L12 20 C12 14 16 10 22 10 L34 10 C41 10 45 13 48 18 L60 58 L72 18 C75 13 79 10 86 10 L98 10 C104 10 108 14 108 20 L108 104 C108 110 104 114 98 114 L86 114 C80 114 76 110 76 104 L76 64 L60 86 L44 64 L44 104 C44 110 40 114 34 114 L22 114 C16 114 12 110 12 104 Z"
    fill="none"
    stroke="#F4A300"
    stroke-width="4"
    stroke-linejoin="round"
  />
  <ellipse cx="42" cy="26" rx="18" ry="10" fill="#FFFFFF" opacity="0.28"/>
  <circle cx="36" cy="34" r="7" fill="#3C3C4A"/>
  <circle cx="84" cy="34" r="7" fill="#3C3C4A"/>
  <path
    d="M48 66 C50 78 70 78 72 66 C72 62 68 60 60 60 C52 60 48 62 48 66 Z"
    fill="#3C3C4A"
  />
</svg>
